<svg width="263" height="66" viewBox="0 0 263 66" fill="none" xmlns="http://www.w3.org/2000/svg">
<path d="M91.34 24.448V22H96.884L104.516 37.732L112.076 22H117.62V24.448H115.352V46.552H117.62V49H110.06V46.552H112.4V28.012L105.596 42.016H103.328L96.56 27.904V46.552H98.9V49H91.34V46.552H93.608V24.448H91.34ZM136.461 46.552V49H123.933C122.709 49 121.893 48.76 121.485 48.28C121.077 47.848 120.873 47.032 120.873 45.832V44.5C120.873 43.636 120.981 43.048 121.197 42.736C121.509 42.28 122.217 41.716 123.321 41.044L131.241 36.112V33.448H124.185V35.536H121.881V31H130.881C132.105 31 132.957 31.264 133.437 31.792C133.941 32.32 134.193 33.088 134.193 34.096V46.552H136.461ZM131.241 38.992L123.753 43.672V46.552H131.241V38.992ZM150.718 46.552H152.806V41.008H144.598V46.552H146.686V49H139.522V46.552H141.826V33.52H139.522V31H146.686V33.52H144.598V38.416H152.806V33.52H150.718V31H157.918V33.52H155.614V46.552H157.918V49H150.718V46.552ZM161.143 31H168.487V33.448H166.183V39.064L174.391 31H177.199V33.448H175.219L169.351 39.46L175.363 46.552H177.235V49H174.139L166.327 39.928V46.552H168.487V49H161.143V46.552H163.447V33.448H161.143V31ZM195.473 46.552H197.777V49H192.665V35.716L184.781 49H179.741V46.48H182.045V33.52H179.741V31H184.817V44.176L192.665 31H197.777V33.52H195.473V46.552ZM211.451 24.448H208.643V22H219.191V46.552H222.035V54.4H219.155V49H203.351V54.4H200.471V46.552H203.603L211.451 24.448ZM216.275 24.448H214.259L206.483 46.552H216.275V24.448ZM239.609 46.552V49H227.081C225.857 49 225.041 48.76 224.633 48.28C224.225 47.848 224.021 47.032 224.021 45.832V44.5C224.021 43.636 224.129 43.048 224.345 42.736C224.657 42.28 225.365 41.716 226.469 41.044L234.389 36.112V33.448H227.333V35.536H225.029V31H234.029C235.253 31 236.105 31.264 236.585 31.792C237.089 32.32 237.341 33.088 237.341 34.096V46.552H239.609ZM234.389 38.992L226.901 43.672V46.552H234.389V38.992ZM258.403 46.552H260.707V49H255.595V35.716L247.711 49H242.671V46.48H244.975V33.52H242.671V31H247.747V44.176L255.595 31H260.707V33.52H258.403V46.552ZM257.359 23.908C257.359 25.468 256.819 26.776 255.739 27.832C254.635 28.888 253.339 29.416 251.851 29.416C250.315 29.416 249.007 28.876 247.927 27.796C246.847 26.716 246.307 25.42 246.307 23.908H248.215C248.215 24.868 248.563 25.708 249.259 26.428C249.979 27.124 250.843 27.472 251.851 27.472C252.835 27.472 253.675 27.124 254.371 26.428C255.091 25.708 255.451 24.868 255.451 23.908H257.359Z" fill="black"/>
<path d="M32.8629 48.0625C49.2784 48.6357 62.4755 52.698 62.3207 57.1299C62.1659 61.5619 48.7176 64.6937 32.3022 64.1204C15.8867 63.5472 2.68961 59.485 2.84438 55.053C2.99915 50.621 16.4475 47.4893 32.8629 48.0625Z" fill="black" fill-opacity="0.3"/>
<path d="M40.3206 15.1205C62.5776 14.732 80.7216 19.0213 80.8206 24.695C80.9196 30.3686 62.9364 35.2886 40.6794 35.6771C18.4224 36.0656 0.278442 31.7762 0.179409 26.1026C0.0803752 20.4289 18.0636 15.5089 40.3206 15.1205Z" fill="#98965F"/>
<path d="M41.6072 23.9903C60.2321 23.9903 75.3479 29.6387 75.3479 36.5982C75.3479 36.7952 75.3358 36.9911 75.3119 37.1859C75.325 36.9904 75.337 36.7945 75.3479 36.5982H8.02438C8.05437 37.1379 8.09281 37.6748 8.13953 38.2087C7.95934 37.6813 7.86646 37.1438 7.86646 36.5982C7.86646 29.6387 22.9823 23.9903 41.6072 23.9903Z" fill="#F7F4BC"/>
<path d="M40.4523 61.9359C19.4754 61.9359 2.18987 45.7616 0 25.0131C2.55446 31.2131 19.6588 36.0105 40.3571 36.0105C62.1803 36.0105 80.0083 30.6774 81 23.9903C79.2798 45.2276 61.7727 61.9359 40.4523 61.9359Z" fill="#D7BD64"/>
<path d="M80.6796 24.1169C79.4036 39.8692 69.4423 53.1299 55.6816 58.9288V35.1701C69.83 33.3406 79.9397 29.1055 80.6796 24.1169Z" fill="url(#paint0_linear_19_186)"/>
<path d="M23.4922 16.3231L21.1675 16.5981L29.4718 26.8426C30.11 26.6203 30.7523 26.3634 31.3954 26.0727L23.4922 16.3231Z" fill="black" fill-opacity="0.5"/>
<path d="M19.41 2.55551C19.0056 1.64709 19.4141 0.582792 20.3225 0.178338L20.3725 0.15611C21.2809 -0.248344 22.3452 0.160199 22.7496 1.06862L32.4179 22.7839C35.4881 22.2987 38.6244 23.9035 39.9484 26.8773C40.2326 27.5157 40.4141 28.1739 40.4999 28.8333H26.5313C26.7631 27.067 27.6607 25.4195 29.0783 24.2708L19.41 2.55551Z" fill="#C06633"/>
<defs>
<linearGradient id="paint0_linear_19_186" x1="55.6816" y1="41.5228" x2="80.6796" y2="41.5228" gradientUnits="userSpaceOnUse">
<stop stop-color="#D7BD64"/>
<stop offset="0.5" stop-color="#E9D696"/>
<stop offset="1" stop-color="#D7BD64"/>
</linearGradient>
</defs>
</svg>
